# Blender v2.90.1 OBJ File: 'ashley-cube-diffuse.blend'
# www.blender.org
mtllib michael-cube.mtl
o Cube_Cube.001
v -1.000000 -1.000000 1.000000
v -1.000000 1.000000 1.000000
v -1.000000 -1.000000 -1.000000
v -1.000000 1.000000 -1.000000
v 1.000000 -1.000000 1.000000
v 1.000000 1.000000 1.000000
v 1.000000 -1.000000 -1.000000
v 1.000000 1.000000 -1.000000
vt 0.008459 0.010267
vt 0.991541 0.010267
vt 0.991541 0.993349
vt 0.008459 0.993349
vt 0.986718 0.991228
vt 0.009376 0.991228
vt 0.009376 0.013886
vt 0.986718 0.013886
vt 0.010252 0.011213
vt 0.989748 0.011213
vt 0.989748 0.990709
vt 0.010252 0.990709
vt 0.010219 0.010522
vt 0.989781 0.010522
vt 0.989781 0.990085
vt 0.010219 0.990085
vt 0.006538 0.005826
vt 0.994777 0.005826
vt 0.994777 0.994065
vt 0.006538 0.994065
vt 0.009041 0.011661
vt 0.989184 0.011661
vt 0.989184 0.991804
vt 0.009041 0.991804
vn -1.0000 0.0000 0.0000
vn 0.0000 0.0000 -1.0000
vn 1.0000 0.0000 0.0000
vn 0.0000 0.0000 1.0000
vn 0.0000 -1.0000 0.0000
vn 0.0000 1.0000 0.0000
usemtl Material.001
s off
f 1/1/1 2/2/1 4/3/1 3/4/1
f 3/5/2 4/6/2 8/7/2 7/8/2
f 7/9/3 8/10/3 6/11/3 5/12/3
f 5/13/4 6/14/4 2/15/4 1/16/4
f 3/17/5 7/18/5 5/19/5 1/20/5
f 8/21/6 4/22/6 2/23/6 6/24/6
